<?xml version="1.0" standalone="no"?>
<!DOCTYPE svg PUBLIC "-//W3C//DTD SVG 20010904//EN"
 "http://www.w3.org/TR/2001/REC-SVG-20010904/DTD/svg10.dtd">
<svg version="1.0" xmlns="http://www.w3.org/2000/svg"
 width="115.000000pt" height="110.000000pt" viewBox="0 0 115.000000 110.000000"
 preserveAspectRatio="xMidYMid meet">

<g transform="translate(0.000000,110.000000) scale(0.100000,-0.100000)"
fill="#000000" stroke="none">
<path d="M475 1090 c-16 -4 11 -5 60 -2 50 3 92 6 94 8 8 7 -124 2 -154 -6z"/>
<path d="M695 1075 c167 -36 310 -147 386 -297 105 -209 62 -479 -102 -638
-23 -22 -46 -37 -52 -33 -6 4 0 15 16 27 15 12 27 26 27 30 0 5 -18 25 -40 44
l-41 34 26 34 c54 70 79 143 81 234 l2 85 -7 -85 c-5 -59 -16 -104 -35 -147
-30 -65 -68 -109 -85 -99 -5 4 -31 -9 -56 -28 -90 -69 -240 -94 -356 -60 -58
17 -129 55 -150 80 -6 8 -20 12 -29 9 -12 -4 -25 6 -43 34 -116 176 -91 391
62 533 86 80 147 102 281 103 94 0 111 -3 163 -27 113 -53 189 -138 228 -254
13 -38 18 -46 14 -24 -16 106 -109 221 -223 277 -74 37 -79 38 -181 38 -86 -1
-117 -5 -161 -23 -251 -101 -342 -403 -190 -628 l31 -47 -41 -42 -42 -42 28
-22 c19 -15 24 -25 17 -32 -15 -15 -117 100 -154 172 -16 33 -36 85 -44 117
-14 54 -15 54 -10 12 12 -108 168 -340 211 -314 14 8 34 2 93 -28 42 -21 90
-40 106 -43 17 -3 2 5 -32 18 -67 26 -150 76 -178 107 -18 20 -18 22 25 65
l43 44 51 -35 c143 -97 339 -97 482 0 l51 35 48 -49 47 -48 -47 -36 c-60 -45
-138 -82 -212 -100 -32 -8 -48 -15 -37 -15 37 -2 147 37 197 69 40 25 52 28
64 19 12 -10 24 -2 71 48 283 297 152 789 -245 922 -34 12 -75 21 -90 20 -17
0 -3 -6 32 -14z"/>
<path d="M358 1056 c-84 -34 -151 -81 -208 -142 -50 -55 -115 -173 -125 -229
-3 -16 5 -2 18 31 65 169 174 278 341 340 33 13 54 23 46 23 -8 0 -41 -10 -72
-23z"/>
<path d="M500 1046 c0 -18 24 -76 32 -76 4 0 8 3 8 8 -1 12 -39 78 -40 68z"/>
<path d="M571 1037 c-1 -10 6 -25 14 -34 8 -8 12 -19 9 -25 -4 -7 -2 -8 4 -4
16 10 15 33 -2 43 -7 4 -16 15 -19 23 -4 12 -6 11 -6 -3z"/>
<path d="M663 1005 c-6 -19 -8 -37 -3 -40 4 -3 11 11 14 30 4 19 11 35 16 35
10 0 7 -40 -5 -59 -5 -9 -3 -12 6 -9 20 7 19 72 -2 76 -10 2 -19 -9 -26 -33z"/>
<path d="M425 996 c8 -18 12 -36 10 -40 -3 -3 0 -2 5 2 12 9 -6 72 -20 72 -5
0 -3 -15 5 -34z"/>
<path d="M741 989 c-11 -33 -1 -59 23 -59 6 0 5 4 -3 9 -12 8 -13 16 -4 45 14
44 -1 48 -16 5z"/>
<path d="M367 970 c9 -22 20 -37 24 -34 9 5 -20 74 -32 74 -4 0 0 -18 8 -40z"/>
<path d="M840 958 c0 -15 -3 -33 -6 -42 -3 -9 -2 -16 4 -16 14 0 24 62 12 74
-7 7 -10 1 -10 -16z"/>
<path d="M297 954 c3 -8 16 -14 28 -14 13 0 26 -6 28 -12 3 -8 6 -6 6 5 1 9 0
17 -2 17 -1 0 -16 4 -34 9 -26 7 -31 7 -26 -5z"/>
<path d="M231 927 c-8 -10 -4 -20 19 -42 34 -33 41 -23 8 12 -12 13 -18 26
-14 30 5 5 15 -2 23 -14 9 -13 21 -23 29 -23 8 0 5 9 -10 25 -26 28 -39 31
-55 12z"/>
<path d="M875 909 c-23 -43 -14 -45 13 -3 12 19 18 34 12 34 -5 0 -17 -14 -25
-31z"/>
<path d="M574 911 c11 -17 -14 -42 -33 -36 -18 5 -32 -24 -46 -93 -5 -26 -3
-38 13 -52 14 -13 22 -38 26 -83 9 -78 26 -107 53 -91 12 7 18 24 19 50 l2 39
-7 -40 c-4 -26 -12 -41 -23 -43 -19 -4 -22 5 -38 108 -14 95 -16 92 33 88 l42
-3 -1 -50 c-1 -35 0 -39 3 -12 3 24 9 37 19 37 18 0 29 25 18 42 -5 7 -7 27
-5 43 1 20 -5 40 -18 56 -17 20 -20 21 -21 6 0 -10 4 -16 9 -13 10 6 21 -16
21 -41 0 -31 -29 8 -37 50 -5 22 -15 43 -22 45 -9 3 -11 0 -7 -7z m37 -87 c29
-26 23 -33 -26 -31 -38 2 -45 5 -45 23 0 12 10 34 23 50 l22 29 3 -27 c2 -14
12 -34 23 -44z m-78 3 c-5 -35 -23 -53 -23 -24 0 13 23 67 27 63 1 -1 0 -19
-4 -39z m80 -48 c21 -5 37 -16 37 -24 0 -8 -5 -15 -11 -15 -5 0 -8 4 -5 9 8
12 -18 21 -59 21 -41 0 -67 -9 -59 -21 3 -5 0 -9 -6 -9 -22 0 -5 34 20 41 36
10 41 10 83 -2z"/>
<path d="M908 878 c-14 -15 -23 -30 -19 -33 4 -2 20 9 35 24 15 16 24 31 19
33 -4 2 -20 -9 -35 -24z"/>
<path d="M170 867 c0 -2 13 -15 28 -30 l29 -27 19 22 c16 19 16 20 1 9 -15
-12 -21 -11 -40 8 -21 19 -37 27 -37 18z"/>
<path d="M417 841 c-3 -13 -10 -20 -15 -17 -10 6 -18 -7 -32 -56 -6 -19 -4
-30 6 -39 8 -6 15 -21 15 -33 1 -11 4 -5 8 14 5 26 2 37 -9 41 -8 3 5 6 28 6
24 0 40 -2 35 -6 -5 -3 -6 -19 -2 -36 5 -24 7 -25 8 -7 0 12 5 22 10 22 5 0 9
16 9 36 0 25 -8 45 -27 67 -28 30 -28 30 -34 8z m27 -48 l19 -23 -31 0 c-33 0
-42 16 -20 38 6 6 12 11 12 9 1 -1 10 -12 20 -24z"/>
<path d="M725 849 c4 -6 -2 -13 -14 -16 -21 -5 -24 -12 -36 -70 -4 -20 -3 -33
3 -33 6 0 13 -8 15 -17 3 -12 5 -8 6 9 0 14 -4 28 -11 30 -6 2 6 4 28 4 l39
-1 -2 -45 c-1 -29 1 -34 4 -15 2 17 11 33 18 37 18 11 3 84 -23 109 -23 21
-37 25 -27 8z m11 -28 c-3 -5 2 -15 11 -22 12 -10 14 -10 9 -1 -4 6 -2 12 3
12 6 0 11 -4 11 -9 0 -15 -30 -41 -46 -41 -17 0 -19 41 -2 58 14 14 22 16 14
3z m-39 -43 c-3 -8 -6 -5 -6 6 -1 11 2 17 5 13 3 -3 4 -12 1 -19z"/>
<path d="M930 840 c-11 -21 3 -29 15 -9 4 6 17 14 29 19 20 8 19 9 -6 9 -18 1
-31 -6 -38 -19z"/>
<path d="M140 833 c0 -6 8 -17 18 -24 16 -13 16 -13 2 6 -8 11 -16 22 -17 24
-2 2 -3 0 -3 -6z"/>
<path d="M956 794 c-17 -12 -17 -14 -4 -14 9 0 20 5 23 11 11 17 2 18 -19 3z"/>
<path d="M115 790 c-6 -9 62 -26 70 -18 3 3 -11 9 -30 15 -19 6 -37 7 -40 3z"/>
<path d="M980 761 c-15 -30 -12 -33 11 -10 12 12 29 19 40 16 10 -3 17 -1 13
4 -10 16 -53 9 -64 -10z"/>
<path d="M90 742 c0 -8 58 -32 76 -32 10 1 -56 39 -68 40 -5 0 -8 -4 -8 -8z"/>
<path d="M1025 725 c-22 -18 -25 -25 -13 -25 18 0 48 25 48 41 0 12 -1 12 -35
-16z"/>
<path d="M274 715 c-15 -24 -17 -24 -29 -8 -12 17 -14 16 -20 -9 -4 -15 -5
-33 -2 -40 3 -7 6 0 6 15 1 34 21 26 21 -8 0 -20 -4 -23 -25 -19 -21 4 -25 0
-25 -18 0 -13 5 -30 10 -38 8 -11 9 -7 4 14 -5 20 -3 27 4 22 6 -3 10 -31 9
-60 -1 -43 -4 -52 -14 -44 -17 14 -17 42 0 32 8 -5 8 -2 -2 9 -18 23 -21 22
-21 -8 0 -14 9 -34 20 -45 12 -12 18 -25 15 -30 -3 -5 -1 -11 5 -15 5 -3 10
-11 10 -17 0 -6 -9 -3 -20 7 -14 12 -17 21 -9 25 7 5 5 9 -5 13 -23 9 -20 -19
4 -43 11 -11 24 -20 30 -20 5 0 16 -12 24 -27 20 -37 20 -21 1 17 -14 27 -14
32 1 55 10 15 14 36 11 52 -3 15 0 37 5 47 8 15 8 21 -1 24 -7 2 -4 13 9 29
27 35 25 44 -7 33 -28 -10 -28 -10 -7 7 20 16 44 54 44 67 0 16 -32 3 -46 -19z
m26 -4 c-12 -23 -30 -36 -30 -22 0 10 27 41 36 41 3 0 0 -9 -6 -19z m-23 -88
c-9 -9 -19 -14 -22 -11 -3 3 2 13 11 22 9 9 19 14 22 11 3 -3 -2 -13 -11 -22z
m-3 -32 c3 -4 -1 -16 -8 -27 -10 -13 -11 -23 -3 -35 8 -13 7 -24 -1 -41 -12
-22 -12 -21 -7 10 2 18 1 31 -3 28 -15 -9 -11 33 4 45 12 10 12 14 2 20 -9 6
-9 9 -1 9 6 0 14 -4 17 -9z"/>
<path d="M841 713 c5 -16 20 -35 31 -44 22 -17 22 -17 -5 -12 -27 5 -27 4 -16
-21 7 -14 17 -26 22 -26 5 0 4 7 -3 15 -19 22 -6 29 15 8 12 -12 14 -18 6 -21
-8 -3 -6 -9 6 -19 16 -13 16 -13 -5 -3 -29 14 -37 8 -24 -17 6 -10 8 -30 5
-45 -3 -15 2 -38 12 -56 16 -27 16 -30 0 -62 -16 -30 -13 -29 34 18 28 28 51
54 51 57 0 3 -10 5 -22 5 -18 0 -20 -2 -9 -9 12 -8 12 -12 2 -25 -19 -22 -34
-20 -22 3 6 10 8 20 6 23 -3 3 4 13 15 23 20 18 28 65 11 65 -5 0 -7 19 -4 42
4 29 3 39 -5 34 -8 -5 -12 4 -12 28 0 35 -12 47 -25 26 -4 -7 -16 -1 -30 15
-32 34 -47 33 -34 -2z m33 -9 c9 -24 7 -28 -9 -14 -17 14 -20 30 -6 30 5 0 12
-7 15 -16z m37 -57 c-13 -13 -15 11 -4 40 7 16 8 15 11 -6 2 -13 -1 -28 -7
-34z m20 -60 c-8 -8 -11 -5 -11 9 0 27 14 41 18 19 2 -9 -1 -22 -7 -28z m-26
-73 c0 -45 -8 -57 -19 -28 -9 23 -7 36 4 29 11 -7 8 30 -3 41 -4 4 -7 12 -7
18 0 6 5 5 13 -3 6 -6 12 -32 12 -57z m40 17 c-3 -12 -10 -21 -15 -21 -7 0 -7
16 -1 60 1 2 6 -1 12 -7 6 -6 8 -20 4 -32z"/>
<path d="M701 665 c0 -16 3 -36 8 -44 13 -20 41 -5 40 21 l-2 23 -4 -23 c-6
-33 -27 -22 -34 19 -6 34 -6 34 -8 4z"/>
<path d="M1038 680 c-15 -4 -29 -5 -32 -2 -3 3 -6 0 -6 -6 0 -7 10 -12 22 -12
20 0 21 -1 3 -20 -10 -11 -13 -20 -7 -20 6 0 14 5 17 10 3 6 15 10 25 10 23 0
32 13 24 34 -7 18 -7 18 -46 6z m42 -20 c0 -5 -7 -10 -15 -10 -8 0 -15 5 -15
10 0 6 7 10 15 10 8 0 15 -4 15 -10z"/>
<path d="M91 664 c-19 -8 -31 -17 -28 -20 3 -3 25 3 49 14 49 23 30 29 -21 6z"/>
<path d="M441 653 c-1 -41 -28 -45 -34 -5 l-4 27 -2 -28 c0 -17 5 -30 15 -34
22 -8 36 10 31 43 -4 29 -4 28 -6 -3z"/>
<path d="M6 613 c-3 -21 -5 -65 -4 -98 1 -50 2 -44 9 35 8 100 6 126 -5 63z"/>
<path d="M117 571 c-5 -20 -10 -23 -36 -18 -18 4 -31 2 -31 -3 0 -6 16 -10 35
-10 36 0 51 16 43 42 -3 7 -7 2 -11 -11z"/>
<path d="M1053 568 c-18 -6 -33 -15 -33 -19 0 -5 2 -9 4 -9 9 0 76 31 76 35 0
6 -8 5 -47 -7z"/>
<path d="M348 557 c-11 -9 -19 -33 -22 -68 l-5 -54 10 50 c11 53 29 84 29 50
0 -52 -25 -182 -37 -195 -12 -13 -13 -8 -9 40 5 50 4 51 -4 15 -13 -60 -12
-85 5 -85 8 0 15 5 15 10 0 29 133 1 191 -41 17 -12 32 -19 35 -16 15 15 -127
77 -177 77 -34 0 -35 5 -18 125 7 48 18 85 27 93 14 10 13 12 -4 12 -10 0 -27
-6 -36 -13z"/>
<path d="M448 563 c6 -2 18 -2 25 0 6 3 1 5 -13 5 -14 0 -19 -2 -12 -5z"/>
<path d="M625 546 l-48 -25 -38 20 c-53 26 -63 24 -14 -4 38 -21 40 -26 43
-74 l3 -51 -63 5 c-57 5 -65 3 -86 -19 -20 -22 -21 -27 -8 -37 12 -10 20 -9
40 6 14 10 26 24 26 31 0 13 31 16 68 6 20 -6 22 -12 22 -74 0 -98 -14 -109
-80 -65 -47 32 -133 56 -147 41 -4 -3 5 -6 18 -6 47 0 101 -22 138 -56 32 -28
46 -34 82 -34 33 0 47 5 57 20 16 26 85 60 141 70 43 7 43 8 11 9 -38 1 -127
-36 -149 -63 -9 -10 -21 -14 -34 -10 -13 4 -17 2 -13 -5 5 -7 -2 -11 -19 -11
-15 0 -24 4 -20 10 3 6 11 10 16 10 6 0 26 12 44 26 19 14 57 34 85 45 53 20
130 26 130 9 0 -5 7 -10 15 -10 8 0 15 6 15 14 0 8 -8 13 -17 12 -14 -1 -20
12 -30 59 l-12 60 5 -56 5 -56 -50 -6 c-48 -6 -143 -46 -156 -67 -16 -25 -25
-5 -25 55 0 62 1 65 23 65 31 0 57 29 57 63 0 28 -30 67 -52 67 -21 1 24 23
72 36 32 9 38 13 19 13 -14 1 -47 -10 -74 -23z m7 -53 c20 -18 24 -63 6 -81
-7 -7 -22 -12 -35 -12 -21 0 -23 4 -23 55 0 60 15 71 52 38z m-162 -93 c0 -5
-2 -10 -4 -10 -3 0 -8 5 -11 10 -3 6 -1 10 4 10 6 0 11 -4 11 -10z"/>
<path d="M762 563 c11 -3 20 -22 27 -56 l10 -52 -4 49 c-4 42 -3 47 13 42 14
-5 14 -3 -2 9 -11 8 -29 14 -40 14 -16 -1 -17 -2 -4 -6z"/>
<path d="M822 510 c-1 -14 5 -56 12 -95 8 -38 14 -59 14 -45 1 14 -5 57 -12
95 -8 39 -14 59 -14 45z"/>
<path d="M46 435 c14 -61 22 -71 63 -83 27 -8 46 -22 55 -40 18 -32 21 -24 4
13 -6 14 -15 25 -19 25 -4 0 -12 12 -18 28 -9 21 -10 22 -7 4 7 -35 -15 -21
-31 19 l-13 34 6 -35 c5 -33 4 -34 -11 -16 -8 11 -15 27 -15 35 0 9 -5 23 -10
31 -8 11 -9 7 -4 -15z"/>
<path d="M1092 422 c-16 -53 -37 -68 -28 -21 l6 34 -13 -34 c-16 -40 -38 -54
-31 -19 3 18 2 17 -7 -4 -6 -16 -14 -28 -18 -28 -4 0 -13 -11 -19 -25 -17 -36
-14 -45 3 -13 9 16 30 31 57 40 34 12 44 21 55 53 7 21 12 43 10 48 -2 6 -8
-9 -15 -31z"/>
<path d="M402 240 c0 -14 2 -19 5 -12 2 6 2 18 0 25 -3 6 -5 1 -5 -13z"/>
<path d="M701 247 c-8 -10 -7 -14 4 -14 8 0 15 6 15 14 0 7 -2 13 -4 13 -2 0
-9 -6 -15 -13z"/>
<path d="M436 238 c3 -5 10 -6 15 -3 13 9 11 12 -6 12 -8 0 -12 -4 -9 -9z"/>
<path d="M280 170 c0 -5 7 -10 15 -10 8 0 15 5 15 10 0 6 -7 10 -15 10 -8 0
-15 -4 -15 -10z"/>
<path d="M850 170 c0 -5 5 -10 10 -10 6 0 10 5 10 10 0 6 -4 10 -10 10 -5 0
-10 -4 -10 -10z"/>
<path d="M386 134 c-9 -24 -7 -52 4 -59 5 -3 7 0 4 8 -2 7 0 26 5 40 6 15 7
27 2 27 -5 0 -12 -7 -15 -16z"/>
<path d="M715 139 c-11 -17 4 -59 21 -59 13 0 13 2 0 21 -8 12 -12 28 -9 35 6
16 -3 19 -12 3z"/>
<path d="M780 130 c-7 -18 -5 -49 3 -41 5 5 7 17 4 27 -3 11 -6 17 -7 14z"/>
<path d="M555 80 c0 -22 5 -40 10 -40 6 0 9 17 7 40 -5 52 -18 52 -17 0z"/>
<path d="M585 103 c0 -10 4 -24 9 -31 4 -6 4 -17 0 -24 -4 -7 -3 -8 4 -4 14 9
11 68 -4 73 -6 2 -10 -5 -9 -14z"/>
<path d="M485 10 c30 -8 162 -13 154 -6 -2 2 -44 5 -94 8 -49 3 -76 2 -60 -2z"/>
</g>
</svg>
